<!--Generator: Adobe Illustrator 24.1.3, SVG Export Plug-In . SVG Version: 6.00 Build 0)-->
<svg version="1.1" id="레이어_1" xmlns="http://www.w3.org/2000/svg" x="0" y="0" viewBox="0 0 177.8 40" xml:space="preserve">
  <style>
    .st1{fill:#935227}
  </style>
  <path d="M96.4 4.9C95.2 2.6 92.8 0 87.7 0c-3.3 0-5.6 1.4-7 2.8V.9c0-.2-.2-.3-.3-.3h-4.5c-.2 0-.3.2-.3.3v38c0 .2.2.3.3.3h4.9c.2 0 .3-.2.3-.3V26c1.5 1.3 3.6 2.5 6.7 2.5 5.1 0 7.5-2.6 8.7-4.9 1.2-2.4 1.3-4.9 1.3-5.4v-7.7c-.1-.6-.2-3.2-1.4-5.6zM92 18.4c0 1.2-.8 5.2-5.5 5.2-4.8 0-5.5-4.1-5.5-5.2v-8.2C81 9 81.8 5 86.5 5c4.8 0 5.5 4.1 5.5 5.2v8.2z" fill="#F7552F"/>
  <path class="st1" d="M22.8 10.4c0-.5.1-3 1.4-5.4C25.5 2.7 28.3.1 33.9.1s8.4 2.6 9.7 4.9C45 7.4 45 9.9 45 10.4v7.7c0 .5-.1 3-1.4 5.4-1.3 2.3-4 4.9-9.7 4.9-5.6 0-8.4-2.6-9.7-4.9-1.4-2.4-1.4-4.9-1.4-5.4v-7.7zm5.6 7.9c0 1.2.8 5.2 5.5 5.2 4.8 0 5.6-4.1 5.6-5.2v-8.2c0-1.2-.8-5.2-5.6-5.2s-5.5 4.1-5.5 5.2v8.2zM71.1.9c0-.2-.1-.3-.3-.3h-4.9c-.2 0-.3.2-.3.3v17.4c0 1.2-.8 5.2-5.5 5.2-4.8 0-5.6-4.1-5.6-5.2V.9c0-.2-.2-.3-.3-.3h-4.9c-.2 0-.3.2-.3.3v17.2c0 .5 0 3 1.3 5.4 1.2 2.3 3.6 4.9 8.7 4.9 1.7 0 3.1-.3 4.2-.9 1.1-.5 2.1-1.2 2.8-1.9v1.9c0 .2.2.3.3.3h4.5c.2 0 .3-.2.3-.3V.9z"/>
  <path d="M122.1 10.1c0-2.2-1.1-7.3-6-9.3-4.8-2-11.1.2-13.1 1l-.4.2c-.2.1-.3.3-.2.5l1.4 4c.1.2.2.3.4.2.1 0 .1-.1.2-.1 1.9-1 6.8-2.6 9.8-1.2 3 1.4 2.7 4.5 2.7 4.9v.8c-1.4-1-3.4-2-6.3-2.1-5.1 0-7.5 2.5-8.7 4.6-1.2 2.3-1.3 4.7-1.3 5.1 0 .5.1 2.9 1.3 5.1 1.2 2.2 3.6 4.6 8.7 4.6 3 0 5-1.1 6.5-2.2v1.3c0 .2.2.3.3.3h4.3c.2 0 .3-.2.3-.3V10.2c.1 0 .1 0 .1-.1zm-5.2 8.7c0 1.1-.8 4.9-5.4 4.9-4.6 0-5.4-3.8-5.4-4.9v-.4c0-1.1.8-4.9 5.4-4.9 4.6 0 5.4 3.8 5.4 4.9v.4z" fill="#FFC400"/>
  <path d="M177.4.2c-2.9-.1-4.7 1.1-5.9 2.4-1.6-1.4-4.1-2.5-7.9-2.5-5.6 0-8.4 2.5-9.7 4.7-1.4 2.3-1.4 4.7-1.4 5.2v.3c0 .5.1 2.9 1.4 5.2.6 1 1.5 2 2.8 2.9-2.1 1.2-4 3.4-4 7.3v2.1c0 .2.2.4.3.4h16.1c1.9 0 2.9 1.3 3.2 2.5.3 1.5-.2 3.5-2.8 4.9l-.2.1c-.2.1-.2.3-.1.5l2.2 3.9c.1.2.3.2.5.1 0 0 1.1-.7 1.5-.9.4-.2.7-.5 1-.8 2.8-2.6 3.3-6.1 2.7-8.9-.8-3.8-4-6-8-6H158c.6-3.4 4.5-3.3 5-3.3h.6c5.6 0 8.4-2.5 9.7-4.7 1.4-2.3 1.4-4.7 1.4-5.2v-.5c0-.4 0-2.2-.9-4.1.7-.5 1.9-1 3.6-.9.2 0 .4-.2.4-.3V.7c0-.3-.2-.5-.4-.5zm-8.3 10c0 1.1-.8 4.9-5.5 5-4.8 0-5.5-3.9-5.5-5v-.3c0-1.1.8-4.9 5.5-5 4.8 0 5.5 3.9 5.5 5v.3z" fill="#31B4DD"/>
  <path class="st1" d="M21 22.6l-4.3-2.2c-.2-.1-.4 0-.5.2v.1c-.7 1.4-2.1 2.9-5 3-4.8 0-5.5-4.1-5.5-5.2v-8.2c0-1.2.8-5.2 5.5-5.2 2.9 0 4.4 1.6 5 3 .1.1.2.3.4.3h.2L21 6.2c.2-.1.2-.3.1-.5s-.2-.3-.2-.5c-1.3-2.3-4-4.9-9.7-4.9-5.6 0-8.4 2.6-9.7 4.9C.1 7.3 0 9.9 0 10.4v7.7c0 .5.1 3 1.4 5.4 1.3 2.3 4 4.9 9.7 4.9h.1c5.6 0 8.4-2.6 9.7-4.9l.3-.5c0-.1-.1-.3-.2-.4z"/>
  <path d="M147.4 4.9c-1.2-2.3-3.7-4.9-8.7-4.9-3.3 0-5.5 1.4-7 2.8V.9c0-.2-.2-.3-.3-.3h-4.5c-.2 0-.3.2-.3.3v26.7c0 .2.2.3.3.3h4.9c.2 0 .3-.2.3-.3V9.9c.1-1.4 1.1-4.9 5.5-5 4.8 0 5.6 4.1 5.6 5.2v17.5c0 .2.2.3.3.3h4.9c.2 0 .3-.2.3-.3V10.4c0-.5 0-3.1-1.3-5.5z" fill="#88CC2F"/>
</svg>
