<?xml version="1.0" standalone="no"?>
<!DOCTYPE svg PUBLIC "-//W3C//DTD SVG 20010904//EN"
 "http://www.w3.org/TR/2001/REC-SVG-20010904/DTD/svg10.dtd">
<svg version="1.0" xmlns="http://www.w3.org/2000/svg"
 width="1280.000000pt" height="1274.000000pt" viewBox="0 0 1280.000000 1274.000000"
 preserveAspectRatio="xMidYMid meet">
<metadata>
Created by potrace 1.15, written by Peter Selinger 2001-2017
</metadata>
<g transform="translate(0.000000,1274.000000) scale(0.100000,-0.100000)"
fill="#F6A903" stroke="none">
<path d="M5072 12627 c-56 -141 -78 -227 -104 -417 -28 -205 -30 -453 -4 -595
38 -210 126 -506 275 -925 51 -145 69 -231 82 -394 19 -234 -13 -502 -82 -704
-38 -109 -75 -219 -85 -250 -2 -8 -20 17 -39 54 -19 37 -73 119 -118 183 -46
64 -118 170 -162 236 -98 151 -202 254 -361 361 -211 142 -324 201 -589 310
-206 83 -414 196 -540 293 -86 65 -265 241 -353 346 -103 123 -190 259 -264
411 -34 70 -64 122 -66 116 -11 -34 19 -296 47 -402 84 -324 184 -550 326
-740 142 -187 319 -395 480 -560 204 -210 253 -276 346 -462 60 -118 107 -240
142 -363 36 -129 45 -182 57 -345 6 -80 13 -161 17 -180 l5 -35 -33 31 c-43
40 -91 72 -264 176 -77 46 -180 110 -228 141 -147 93 -311 146 -577 183 -99
14 -202 18 -490 19 -358 2 -462 9 -609 40 -319 68 -679 247 -924 460 -49 42
-91 75 -93 72 -8 -8 104 -216 152 -284 86 -121 258 -313 368 -412 39 -35 117
-94 174 -132 148 -97 523 -283 762 -379 339 -135 437 -197 656 -415 164 -163
228 -246 314 -405 34 -63 75 -136 91 -162 16 -27 25 -48 21 -48 -4 0 -32 7
-62 15 -30 8 -127 24 -215 35 -88 11 -221 29 -295 40 -162 24 -209 25 -343 5
-224 -34 -478 -117 -746 -245 -360 -172 -549 -228 -841 -251 -252 -19 -507 5
-739 71 -58 17 -117 35 -131 40 -32 13 45 -59 137 -128 127 -96 388 -224 593
-292 227 -76 424 -94 995 -92 455 2 512 -3 690 -55 241 -69 439 -168 631 -314
80 -61 152 -113 160 -116 28 -10 13 -19 -54 -29 -37 -6 -141 -34 -232 -62 -91
-28 -210 -63 -265 -77 -134 -36 -299 -118 -417 -207 -158 -119 -314 -264 -427
-397 -304 -358 -477 -506 -756 -648 -260 -132 -472 -196 -759 -229 -74 -8 -63
-15 87 -53 154 -40 336 -55 562 -48 203 8 310 26 483 82 181 58 496 187 660
269 380 190 554 231 947 224 177 -4 213 -7 315 -32 63 -16 148 -36 188 -45
l73 -16 -73 -52 c-40 -28 -104 -79 -143 -114 -38 -34 -133 -115 -210 -179 -77
-64 -158 -139 -181 -166 -152 -183 -295 -482 -394 -818 -129 -440 -250 -667
-512 -956 -120 -133 -252 -242 -419 -348 -74 -46 -123 -82 -111 -82 54 0 265
44 346 71 229 79 459 193 601 298 136 100 484 451 669 673 158 191 238 267
380 361 219 143 442 234 696 283 96 18 185 36 198 39 l24 6 -25 -33 c-31 -42
-50 -80 -196 -383 -167 -349 -185 -427 -185 -815 0 -205 4 -268 22 -385 52
-324 50 -590 -4 -835 -62 -278 -163 -519 -307 -734 -48 -71 -85 -131 -84 -133
2 -1 53 29 113 68 88 57 140 102 269 232 205 207 296 328 385 511 89 184 216
526 285 772 91 320 140 426 304 644 131 175 268 306 451 431 85 58 156 106
157 105 1 -1 -2 -19 -8 -41 -15 -65 -30 -664 -19 -748 33 -235 164 -553 350
-852 110 -177 225 -406 268 -537 39 -116 78 -308 93 -457 17 -165 6 -424 -24
-581 -14 -69 -23 -126 -22 -128 4 -5 110 158 149 229 73 136 183 469 211 644
30 185 11 673 -40 1010 -36 240 -41 354 -21 502 31 233 119 520 204 663 22 36
69 114 105 174 l66 108 11 -43 c5 -24 26 -82 44 -129 133 -330 208 -508 237
-556 56 -92 151 -204 274 -322 147 -142 213 -194 400 -322 388 -266 584 -478
774 -841 78 -148 121 -264 166 -440 19 -79 37 -144 39 -146 7 -7 38 207 43
297 6 101 -16 372 -43 524 -20 117 -65 256 -123 381 -89 193 -240 472 -349
645 -139 222 -183 310 -227 457 -83 272 -103 533 -64 833 l23 182 20 -29 c38
-54 466 -464 545 -522 143 -104 534 -250 791 -296 508 -90 753 -186 1070 -419
164 -121 269 -225 413 -409 43 -54 77 -95 77 -90 0 28 -65 244 -96 317 -41 99
-192 366 -262 465 -26 36 -87 108 -137 160 -114 119 -473 407 -675 541 -85 57
-182 124 -215 149 -228 174 -468 528 -560 826 -20 66 -47 153 -60 192 -13 40
-22 73 -21 73 2 0 29 -13 62 -29 32 -17 145 -60 249 -96 105 -37 240 -84 300
-106 154 -54 292 -67 528 -51 213 15 309 30 518 82 308 77 578 104 789 81 160
-17 382 -65 515 -111 66 -23 189 -77 273 -121 l153 -79 -61 79 c-151 195 -470
447 -704 556 -180 84 -597 199 -926 254 -310 53 -436 95 -643 215 -214 125
-353 242 -523 443 l-104 123 97 0 c54 0 136 4 183 10 47 5 161 14 255 20 255
16 371 49 612 175 177 93 279 159 450 292 362 281 598 392 1008 473 127 26
412 37 563 23 111 -11 109 -8 -43 67 -128 63 -243 100 -447 144 -227 49 -355
60 -520 46 -203 -17 -537 -75 -803 -140 -132 -32 -285 -64 -340 -70 -236 -28
-633 35 -855 135 -229 104 -285 134 -265 141 50 16 156 69 268 132 67 38 165
91 217 117 138 69 228 135 333 245 91 94 228 269 301 382 19 31 75 130 124
220 147 272 274 449 423 594 224 215 504 391 774 484 127 43 126 43 65 51
-251 33 -701 -46 -973 -169 -149 -68 -545 -328 -769 -506 -172 -136 -261 -195
-366 -243 -116 -54 -322 -118 -470 -147 -118 -23 -156 -26 -358 -26 l-226 0
53 58 c29 31 96 116 149 187 54 72 133 175 176 230 131 166 191 305 257 595
43 185 53 256 67 460 18 252 65 504 125 665 65 172 196 408 314 565 35 47 120
140 189 208 l124 122 -94 -34 c-130 -47 -240 -104 -371 -193 -239 -162 -360
-271 -486 -436 -107 -142 -311 -469 -418 -670 -52 -100 -115 -212 -138 -248
-95 -147 -266 -315 -465 -456 -120 -86 -171 -113 -365 -195 -192 -82 -178 -81
-149 -8 14 34 38 119 54 189 16 70 48 201 72 292 41 159 42 168 42 319 -1 246
-50 489 -169 825 -69 196 -126 412 -144 548 -16 113 -13 340 4 497 26 220 76
403 168 613 14 31 22 57 18 57 -21 0 -215 -218 -273 -306 -142 -216 -235 -395
-282 -541 -58 -186 -127 -621 -146 -928 -20 -331 -58 -479 -184 -730 -95 -187
-167 -295 -273 -407 -48 -52 -110 -117 -136 -146 -26 -29 -49 -52 -51 -52 -2
0 -6 42 -9 93 -4 50 -14 121 -22 157 -9 36 -31 153 -50 262 -21 117 -47 230
-65 280 -39 107 -121 253 -224 398 -104 148 -145 196 -309 368 -150 158 -296
346 -371 477 -99 174 -204 476 -241 690 -9 55 -20 172 -24 260 l-6 160 -43
-108z m2590 -3439 c-7 -7 -12 -8 -12 -2 0 14 12 26 19 19 2 -3 -1 -11 -7 -17z
m1648 -1848 c0 -5 -4 -10 -10 -10 -5 0 -10 5 -10 10 0 6 5 10 10 10 6 0 10 -4
10 -10z m110 -1260 c0 -5 -2 -10 -4 -10 -3 0 -8 5 -11 10 -3 6 -1 10 4 10 6 0
11 -4 11 -10z m-3689 -2613 c-8 -8 -16 -7 -27 5 -14 14 -14 15 11 10 19 -3 23
-8 16 -15z"/>
</g>
</svg>
